<?xml version="1.0" standalone="no"?>
<!DOCTYPE svg PUBLIC "-//W3C//DTD SVG 20010904//EN"
 "http://www.w3.org/TR/2001/REC-SVG-20010904/DTD/svg10.dtd">
<svg version="1.0" xmlns="http://www.w3.org/2000/svg"
 width="70.000000pt" height="70.000000pt" viewBox="0 0 70.000000 70.000000"
 preserveAspectRatio="xMidYMid meet">
<metadata>
Created by potrace 1.14, written by Peter Selinger 2001-2017
</metadata>
<g transform="translate(0.000000,70.000000) scale(0.100000,-0.100000)"
fill="#000000" stroke="none">
<path d="M262 678 c-7 -7 -12 -9 -12 -6 0 8 -66 -18 -88 -35 -39 -31 -112
-110 -112 -122 0 -7 -6 -20 -12 -27 -14 -14 -17 -24 -25 -73 -10 -56 -4 -165
8 -165 4 0 10 -13 14 -30 4 -17 11 -30 16 -30 6 0 8 -4 5 -9 -9 -14 93 -110
138 -131 60 -26 79 -33 102 -35 11 -1 27 -5 34 -10 9 -6 11 -4 5 6 -7 11 -6
12 6 4 16 -12 39 -13 57 -2 6 5 17 5 22 2 6 -3 10 -1 10 4 0 6 7 11 15 11 19
0 94 37 113 56 7 8 18 14 23 14 6 0 7 5 4 10 -3 6 -2 10 4 10 9 0 68 77 69 90
0 3 5 18 11 33 6 16 11 39 11 53 0 13 3 24 8 24 4 0 8 11 8 25 1 16 -2 22 -10
18 -6 -4 -4 2 4 12 9 12 10 16 2 11 -9 -6 -11 -1 -8 18 3 14 0 26 -5 26 -5 0
-9 11 -9 25 0 14 -5 25 -11 25 -6 0 -9 7 -5 15 3 8 1 15 -4 15 -5 0 -11 8 -14
18 -11 32 -88 101 -144 129 -45 22 -74 28 -138 30 -51 1 -85 -2 -92 -9z"/>
</g>
</svg>
